<?xml version="1.0" encoding="UTF-8" standalone="no"?> <!-- Created with Vectornator for iOS (http://vectornator.io/) --><!DOCTYPE svg PUBLIC "-//W3C//DTD SVG 1.1//EN" "http://www.w3.org/Graphics/SVG/1.1/DTD/svg11.dtd">
<svg height="100%" style="fill-rule:evenodd;clip-rule:evenodd;stroke-linecap:round;stroke-linejoin:round;" xmlns:xlink="http://www.w3.org/1999/xlink" xmlns="http://www.w3.org/2000/svg" xml:space="preserve" width="100%" xmlns:vectornator="http://vectornator.io" version="1.1" viewBox="0 0 1024 1024">
<metadata>
<vectornator:setting key="DisplayWhiteBackground" value="0"/>
<vectornator:setting key="RulersVisible" value="1"/>
<vectornator:setting key="Units" value="Pixels"/>
<vectornator:setting key="New" value="1"/>
<vectornator:setting key="DynamicGuides" value="0"/>
<vectornator:setting key="GuidesVisible" value="1"/>
<vectornator:setting key="SnapToPoints" value="0"/>
<vectornator:setting key="SnapToGrid" value="0"/>
<vectornator:setting key="SnapToGuides" value="1"/>
<vectornator:setting key="DimensionsVisible" value="1"/>
<vectornator:setting key="SnapToEdges" value="0"/>
</metadata>
<defs/>
<g id="Calque 1" vectornator:layerName="Calque 1">
<g opacity="1">
<path d="M562.447+517.48C558.529+518.117+555.703+521.108+555.767+524.568L555.767+560.008L538.04+560.008C525.195+560.008+514.662+569.09+514.662+580.165L514.662+816.283C514.662+827.358+525.195+836.439+538.04+836.439L675.229+836.439C679.114+841.617+692.409+857.703+720.187+857.703C747.966+857.703+761.26+841.617+765.146+836.439L902.335+836.439C915.18+836.439+925.713+827.358+925.713+816.283L925.713+580.165C925.713+569.09+915.18+560.008+902.335+560.008L884.608+560.008L884.608+524.568C884.608+520.665+880.915+517.48+876.387+517.48C813.637+517.48+773.11+528.417+748.19+539.63C735.73+545.251+727.252+550.733+721.729+555.135C721.055+555.661+720.766+555.966+720.187+556.464C719.609+555.966+719.32+555.661+718.646+555.135C713.123+550.733+704.645+545.251+692.185+539.63C667.265+528.417+626.738+517.48+563.988+517.48C563.731+517.48+563.474+517.48+563.217+517.48C562.96+517.48+562.703+517.48+562.447+517.48ZM572.209+532.099C627.605+533.068+663.25+542.482+684.477+552.034C695.653+557.046+703.103+562.196+707.599+565.767C711.131+568.564+711.453+569.367+711.966+569.976L711.966+795.683C706.507+793.108+700.534+790.229+690.643+787.266C667.2+780.262+628.761+773.783+572.209+773.09L572.209+532.099ZM868.166+532.099L868.166+773.09C811.614+773.783+773.175+780.262+749.732+787.266C739.841+790.229+733.868+793.108+728.408+795.683L728.408+569.976C728.922+569.367+729.243+568.564+732.776+565.767C737.272+562.196+744.722+557.046+755.898+552.034C777.125+542.482+812.77+533.068+868.166+532.099ZM538.04+574.184L555.767+574.184L555.767+779.735C555.767+783.639+559.46+786.823+563.988+786.823C624.554+786.823+662.833+793.773+685.505+800.556C696.841+803.934+704.099+807.257+708.627+809.638C712.159+811.493+713.476+812.351+714.022+812.739C715.852+814.455+718.55+815.286+721.215+814.954C721.311+814.954+721.376+814.954+721.472+814.954C722.789+814.76+724.009+814.317+725.069+813.625C725.743+813.265+726.353+812.822+726.867+812.296C727.734+811.714+729.211+810.967+731.748+809.638C736.276+807.257+743.534+803.934+754.87+800.556C777.542+793.773+815.821+786.823+876.387+786.823C880.915+786.823+884.608+783.639+884.608+779.735L884.608+574.184L902.335+574.184C906.252+574.184+909.271+576.759+909.271+580.165L909.271+816.283C909.271+819.688+906.252+822.263+902.335+822.263L761.293+822.263C758.338+822.236+755.576+823.592+754.099+825.807C754.099+825.807+742.635+843.527+720.187+843.527C697.74+843.527+686.276+825.807+686.276+825.807C684.799+823.592+682.037+822.236+679.082+822.263L538.04+822.263C534.122+822.263+531.104+819.688+531.104+816.283L531.104+580.165C531.104+576.759+534.122+574.184+538.04+574.184ZM751.28+576.995C751.28+589.411+762.786+599.638+776.754+599.638C790.723+599.638+802.229+589.411+802.229+576.995C802.229+567.234+795.073+558.917+785.246+555.767L785.246+501.517C785.289+498.795+783.68+496.263+781.035+494.891C778.39+493.519+775.119+493.519+772.473+494.891C769.828+496.263+768.219+498.795+768.263+501.517L768.263+555.767C758.435+558.917+751.28+567.234+751.28+576.995ZM628.785+715.887C617.25+715.887+607.42+722.332+603.697+731.183L539.584+731.183C536.367+731.144+533.374+732.593+531.753+734.975C530.131+737.358+530.131+740.304+531.753+742.686C533.374+745.069+536.367+746.518+539.584+746.479L603.697+746.479C607.42+755.33+617.25+761.774+628.785+761.774C643.459+761.774+655.546+751.412+655.546+738.831C655.546+726.25+643.459+715.887+628.785+715.887ZM768.263+576.995C768.263+572.89+771.734+569.761+776.273+569.535C776.599+569.552+776.926+569.552+777.252+569.535C781.783+569.768+785.246+572.895+785.246+576.995C785.246+581.252+781.545+584.542+776.754+584.542C771.964+584.542+768.263+581.252+768.263+576.995ZM628.785+731.183C633.817+731.183+637.705+734.516+637.705+738.831C637.705+743.145+633.817+746.479+628.785+746.479C623.934+746.479+620.236+743.352+619.969+739.264C619.989+738.97+619.989+738.676+619.969+738.383C620.244+734.302+623.94+731.183+628.785+731.183Z" opacity="1" fill="#000000"/>
<path d="M586.599+275.399L586.599+293.098L634.393+291.939C706.727+291.939+768.897+347.765+768.897+418.001L768.897+445.807L768.897+488.598L768.897+517.48L777.766+517.48L785.059+517.48L784.93+419.867C784.93+334.395+718.593+275.813+630.569+275.813L586.599+275.399Z" opacity="1" fill="#000000"/>
<path d="M551.437+747.131L551.437+730.979L497.485+732.037C466.171+732.037+436.546+724.545+411.918+711.692C372.326+691.029+345.651+656.512+345.651+616.997L345.651+591.621L345.651+552.572L345.651+526.215L335.639+526.215L327.407+526.215L327.552+615.294C327.552+693.293+402.436+746.753+501.801+746.753L551.437+747.131Z" opacity="1" fill="#000000"/>
<path d="M346.417+149.442C327.302+149.442+311.19+159.302+303.496+173.264C282.907+173.84+265.375+184.161+256.581+199.09C210.042+207.568+174.842+242.633+174.842+285.093C174.842+305.16+183.26+323.315+196.396+338.175C187.496+349.118+181.705+362.158+181.705+376.511C181.705+395.771+191.356+413.004+206.396+425.353C204.198+431.389+202.294+437.632+202.294+444.337C202.294+480.093+236.18+509.214+277.787+509.214C281.647+509.214+285.24+508.592+288.912+508.108C296.821+525.848+316.204+538.703+339.554+538.703C360.598+538.703+378.399+528.105+387.595+513.084C396.79+528.105+414.591+538.703+435.635+538.703C458.986+538.703+478.368+525.848+486.277+508.108C489.949+508.592+493.542+509.214+497.402+509.214C539.009+509.214+572.895+480.093+572.895+444.337C572.895+437.632+570.992+431.389+568.793+425.353C583.833+413.004+593.484+395.771+593.484+376.511C593.484+362.158+587.693+349.118+578.793+338.175C591.929+323.315+600.347+305.16+600.347+285.093C600.347+242.633+565.147+207.568+518.608+199.09C509.815+184.161+492.282+173.84+471.693+173.264C463.999+159.302+447.887+149.442+428.772+149.442C410.918+149.442+395.878+158.266+387.595+170.753C379.311+158.266+364.271+149.442+346.417+149.442ZM346.417+161.238C365.451+161.238+380.732+174.37+380.732+190.727C380.732+193.976+383.815+196.625+387.595+196.625C391.375+196.625+394.458+193.976+394.458+190.727C394.458+174.37+409.738+161.238+428.772+161.238C443.812+161.238+456.439+169.508+461.13+180.982L462.819+185.106L467.913+184.921C468.958+184.875+469.629+184.829+469.95+184.829C486.947+184.829+501.424+193.63+507.75+206.186L509.198+209.089L512.844+209.642C554.746+215.954+586.621+247.218+586.621+285.093C586.621+303.87+578.793+320.988+565.764+334.304L562.172+337.99L562.359+338.175C561.662+338.474+561.019+338.843+560.483+339.303C557.802+341.607+557.802+345.363+560.483+347.666C563.164+349.947+567.506+349.947+570.187+347.666C570.214+347.62+570.241+347.597+570.295+347.574C576.246+356.03+579.758+365.89+579.758+376.511C579.758+391.578+572.815+405.171+561.582+415.216C560.804+414.985+560+414.847+559.169+414.847C555.389+414.847+552.306+417.497+552.306+420.745C552.306+422.611+553.325+424.362+555.067+425.468L555.094+425.537C557.695+431.412+559.169+437.725+559.169+444.337C559.169+473.734+531.61+497.418+497.402+497.418C492.711+497.418+488.126+496.934+483.649+496.035L477.135+494.768L476.894+495.598C476.143+494.607+475.044+493.824+473.784+493.363C472.98+493.087+472.149+492.925+471.291+492.902C468.449+492.856+465.875+494.308+464.803+496.565C463.355+499.56+465.018+503.016+468.529+504.26C470.245+504.882+472.202+504.859+473.918+504.214C467.966+517.461+453.195+526.907+435.635+526.907C412.821+526.907+394.458+511.126+394.458+491.52L380.732+491.52C380.732+511.126+362.368+526.907+339.554+526.907C320.305+526.907+304.274+515.595+299.716+500.344L298.054+494.768L297.089+494.953C297.92+493.962+298.376+492.764+298.376+491.52C298.376+488.271+295.293+485.622+291.513+485.622C287.733+485.622+284.65+488.271+284.65+491.52C284.65+493.593+285.91+495.506+287.974+496.588C284.65+497.072+281.272+497.418+277.787+497.418C243.579+497.418+216.02+473.734+216.02+444.337C216.02+437.725+217.495+431.412+220.095+425.537L221.811+421.667L218.165+418.971C204.251+408.673+195.431+393.536+195.431+376.511C195.431+363.356+200.712+351.353+209.559+341.769L213.018+337.99L209.425+334.304C196.396+320.988+188.568+303.87+188.568+285.093C188.568+247.218+220.444+215.954+262.345+209.642L265.991+209.089L267.439+206.186C272.881+195.358+284.435+187.34+298.403+185.359C298.724+188.377+301.7+190.727+305.239+190.727C308.912+190.727+311.914+188.239+312.102+185.106L312.37+185.106L314.059+180.982C318.75+169.508+331.377+161.238+346.417+161.238Z" opacity="1" fill="#000000"/>
<path d="M387.595+227.773C373.976+227.773+362.868+238.855+362.868+252.442C362.868+266.03+373.976+277.112+387.595+277.112C401.214+277.112+412.321+266.03+412.321+252.442C412.321+238.855+401.214+227.773+387.595+227.773ZM387.595+234.821C397.391+234.821+405.257+242.668+405.257+252.442C405.257+262.217+397.391+270.064+387.595+270.064C377.798+270.064+369.933+262.217+369.933+252.442C369.933+242.668+377.798+234.821+387.595+234.821ZM295.752+270.064C282.133+270.064+271.026+281.146+271.026+294.733C271.026+308.321+282.133+319.403+295.752+319.403C304.418+319.403+312.048+314.915+316.464+308.156L316.905+309.863L317.885+310.634L318.202+310.799L321.362+310.881L323.335+308.417L322.521+305.361L321.542+304.59L321.238+304.425L318.506+304.342C319.775+301.382+320.479+298.134+320.479+294.733C320.479+281.146+309.371+270.064+295.752+270.064ZM295.752+277.112C305.549+277.112+313.414+284.959+313.414+294.733C313.414+304.507+305.549+312.354+295.752+312.354C285.956+312.354+278.09+304.507+278.09+294.733C278.09+284.959+285.956+277.112+295.752+277.112ZM386.601+277.993L384.283+280.154L384.062+281.38L384.062+281.738L385.483+284.546L388.588+285.11L390.906+282.949L391.127+281.738L391.127+281.38L389.706+278.558L386.601+277.993ZM479.437+280.636C465.818+280.636+454.71+291.718+454.71+305.306C454.71+307.619+455.055+309.835+455.648+311.969L454.2+313.676L454.889+316.746L457.787+318.026L458.242+317.93C462.575+325.13+470.44+329.976+479.437+329.976C493.056+329.976+504.164+318.893+504.164+305.306C504.164+291.718+493.056+280.636+479.437+280.636ZM479.437+287.685C489.234+287.685+497.099+295.532+497.099+305.306C497.099+315.08+489.234+322.927+479.437+322.927C469.64+322.927+461.775+315.08+461.775+305.306C461.775+295.532+469.64+287.685+479.437+287.685ZM386.601+292.448L384.283+294.609L384.062+295.835L384.062+296.179L385.483+299.015L388.588+299.565L390.906+297.404L391.127+296.179L391.127+295.835L389.706+293.012L386.601+292.448ZM386.601+306.903L384.338+308.995C373.313+310.014+363.737+316.113+357.983+324.923L356.341+324.882L354.368+327.346L355.127+330.237C353.292+334.477+352.271+339.158+352.271+344.072C352.271+354.521+356.879+363.896+364.151+370.353L363.972+371.234L366.11+373.588L368.042+373.381C373.644+377.126+380.364+379.315+387.595+379.315C397.433+379.315+406.347+375.267+412.763+368.756L413.342+368.357L413.356+368.095C419.262+361.804+422.919+353.365+422.919+344.072C422.919+340.053+422.201+336.198+420.945+332.591L421.373+332.109L420.656+329.026L419.165+328.365C413.77+317.627+403.049+310+390.465+308.982L389.706+307.453L386.601+306.903ZM330.828+311.184L328.869+313.662L329.669+316.705L330.635+317.476L330.952+317.641L334.112+317.737L336.085+315.273L335.271+312.217L334.305+311.432L334.002+311.267L330.828+311.184ZM387.595+315.879C403.242+315.879+415.854+328.461+415.854+344.072C415.854+359.684+403.242+372.266+387.595+372.266C371.947+372.266+359.335+359.684+359.335+344.072C359.335+328.461+371.947+315.879+387.595+315.879ZM444.444+316.484L443.23+316.76L442.912+316.897L440.856+319.293L441.56+322.376L444.444+323.657L445.658+323.381L445.989+323.257L448.032+320.848L447.342+317.765L444.444+316.484ZM343.578+318.026L341.618+320.504L342.419+323.56L343.384+324.331L343.702+324.496L346.862+324.593L348.835+322.115L348.021+319.072L347.055+318.302L346.751+318.123L343.578+318.026ZM431.101+322.115L429.887+322.39L429.569+322.528L427.513+324.923L428.217+328.007L431.101+329.301L432.315+329.026L432.646+328.874L434.702+326.479L434.012+323.395L431.101+322.115ZM387.595+322.927C385.649+322.927+384.062+324.51+384.062+326.451C384.062+328.392+385.649+329.976+387.595+329.976C389.54+329.976+391.127+328.392+391.127+326.451C391.127+324.51+389.54+322.927+387.595+322.927ZM400.124+328.09C399.171+328.076+398.261+328.447+397.585+329.108C396.205+330.485+396.205+332.729+397.585+334.105C398.964+335.468+401.2+335.468+402.58+334.105C403.96+332.729+403.96+330.485+402.58+329.108C401.931+328.461+401.048+328.09+400.124+328.09ZM375.162+328.09C374.196+328.076+373.272+328.447+372.596+329.122C371.23+330.499+371.23+332.729+372.596+334.105C373.976+335.482+376.225+335.482+377.605+334.105C378.971+332.729+378.971+330.499+377.605+329.122C376.942+328.475+376.073+328.103+375.162+328.09ZM369.933+340.548C367.987+340.548+366.4+342.131+366.4+344.072C366.4+346.014+367.987+347.597+369.933+347.597C371.878+347.597+373.465+346.014+373.465+344.072C373.465+342.131+371.878+340.548+369.933+340.548ZM405.257+340.548C403.311+340.548+401.724+342.131+401.724+344.072C401.724+346.014+403.311+347.597+405.257+347.597C407.202+347.597+408.789+346.014+408.789+344.072C408.789+342.131+407.202+340.548+405.257+340.548ZM375.162+353.007C374.196+352.993+373.286+353.365+372.61+354.039C371.23+355.416+371.23+357.646+372.61+359.023C373.989+360.4+376.225+360.4+377.605+359.023C378.984+357.646+378.984+355.416+377.605+354.039C376.956+353.392+376.073+353.021+375.162+353.007ZM400.137+353.007C399.185+352.993+398.261+353.365+397.585+354.039C396.205+355.416+396.205+357.646+397.585+359.023C398.964+360.4+401.2+360.4+402.58+359.023C403.96+357.646+403.96+355.416+402.58+354.039C401.931+353.392+401.062+353.021+400.137+353.007ZM387.595+358.169C385.649+358.169+384.062+359.753+384.062+361.694C384.062+363.635+385.649+365.218+387.595+365.218C389.54+365.218+391.127+363.635+391.127+361.694C391.127+359.753+389.54+358.169+387.595+358.169ZM419.717+373.147L417.123+374.951L417.013+378.103L417.73+379.122L417.992+379.37L420.987+380.361L423.581+378.558L423.691+375.405L422.974+374.4L422.725+374.139L419.717+373.147ZM360.039+378.172L356.893+378.489L355.969+379.315L355.748+379.59L355.141+382.688L357.279+385.028L360.439+384.725L361.35+383.885L361.557+383.61L362.164+380.512L360.039+378.172ZM429.97+383.362L427.375+385.166L427.265+388.332L427.983+389.337L428.217+389.598L431.225+390.59L433.833+388.786L433.93+385.634L433.226+384.601L432.964+384.367L429.97+383.362ZM351.208+389.626L348.062+389.929L347.138+390.769L346.917+391.044L346.31+394.141L348.449+396.482L351.608+396.179L352.519+395.339L352.726+395.064L353.333+391.966L351.208+389.626ZM440.208+393.577L437.6+395.394L437.503+398.533L438.207+399.565L438.469+399.799L441.464+400.804L444.058+399.001L444.168+395.835L443.451+394.83L443.216+394.568L440.208+393.577ZM342.377+401.08L339.231+401.383L338.307+402.222L338.086+402.498L337.493+405.595L339.618+407.935L342.777+407.633L343.688+406.793L343.909+406.517L344.502+403.42L342.377+401.08ZM450.446+403.805L447.852+405.595L447.742+408.761L448.459+409.78L448.708+410.028L451.716+411.019L454.31+409.216L454.42+406.063L453.703+405.044L453.454+404.797L450.446+403.805ZM316.947+411.033C303.328+411.033+292.22+422.115+292.22+435.702C292.22+449.29+303.328+460.372+316.947+460.372C330.566+460.372+341.673+449.29+341.673+435.702C341.673+429.012+338.969+422.927+334.609+418.481L334.857+418.246L335.078+417.971L335.671+414.874L333.546+412.533L330.4+412.836L329.476+413.676L329.255+413.951L329.2+414.309C325.571+412.231+321.404+411.033+316.947+411.033ZM479.437+411.033C473.835+411.033+468.674+412.933+464.521+416.085L463.941+415.259L463.693+415.011L460.685+414.006L458.091+415.824L457.98+418.976L458.698+419.995L458.946+420.243L459.953+420.573C456.683+424.758+454.71+430.003+454.71+435.702C454.71+449.29+465.818+460.372+479.437+460.372C493.056+460.372+504.164+449.29+504.164+435.702C504.164+422.115+493.056+411.033+479.437+411.033ZM316.947+418.081C326.744+418.081+334.609+425.928+334.609+435.702C334.609+445.477+326.744+453.324+316.947+453.324C307.15+453.324+299.285+445.477+299.285+435.702C299.285+425.928+307.15+418.081+316.947+418.081ZM479.437+418.081C489.234+418.081+497.099+425.928+497.099+435.702C497.099+445.477+489.234+453.324+479.437+453.324C469.64+453.324+461.775+445.477+461.775+435.702C461.775+425.928+469.64+418.081+479.437+418.081Z" opacity="1" fill="#000000"/>
<g opacity="1"/>
</g>
</g>
</svg>
